<?xml version="1.0" encoding="UTF-8"?>
<svg width="20px" height="18px" viewBox="0 0 20 18" version="1.1" xmlns="http://www.w3.org/2000/svg"
     xmlns:xlink="http://www.w3.org/1999/xlink">
    <!-- Generator: Sketch 51.3 (57544) - http://www.bohemiancoding.com/sketch -->
    <title>open-book</title>
    <desc>Created with Sketch.</desc>
    <defs></defs>
    <g id="Page-1" stroke="none" stroke-width="1" fill="none" fill-rule="evenodd">
        <g id="threads-copy-3" transform="translate(-15.000000, -408.000000)" fill="#4A4A4A" fill-rule="nonzero">
            <g id="open-book" transform="translate(15.000000, 408.000000)">
                <path d="M19.2323486,1.45549669 L18.3361784,0.943880998 C16.0995022,-0.314947748 13.4519724,-0.31456276 11.215645,0.944843393 L9.9999995,1.63893156 L8.78261012,0.943880998 C6.54593393,-0.314947748 3.89840413,-0.31456276 1.66207673,0.944650924 L0.767475994,1.45549669 C0.295238425,1.72381587 -0.00104355442,2.26122411 2.7622011e-06,2.84752261 L2.7622011e-06,15.7416632 C2.7622011e-06,16.2883105 0.257919821,16.7954991 0.680806112,17.0799867 C1.1036924,17.3644743 1.63033844,17.3852623 2.07048896,17.1348439 C4.05029439,16.0201838 6.39404362,16.0197988 8.37402347,17.1336891 L9.7945727,17.9449984 C9.79997863,17.9478856 9.80555899,17.9498105 9.81079059,17.9528902 C9.81794041,17.9565473 9.82509023,17.9602044 9.83241447,17.9634767 C9.8434008,17.9682887 9.85473589,17.9725232 9.86572223,17.9763729 C9.87287204,17.9788752 9.87984749,17.9813774 9.88699731,17.9834947 C9.89955311,17.9871518 9.91210891,17.9898466 9.92483908,17.9921564 C9.93094261,17.9933112 9.93687176,17.9948511 9.94297524,17.9958135 C9.98064263,18.0013955 10.0188332,18.0013955 10.0565006,17.9958135 C10.0626041,17.9948511 10.0687076,17.9933112 10.0748111,17.9921564 C10.0873669,17.9898466 10.0999227,17.9871518 10.1124785,17.9834947 C10.1196284,17.9815699 10.1266038,17.9788752 10.1337537,17.9763729 C10.1450887,17.9725232 10.1560751,17.9682887 10.1672358,17.9634767 C10.1743856,17.9602044 10.1815354,17.9565473 10.1886852,17.9528902 C10.1940912,17.9500029 10.1996716,17.9478856 10.2049032,17.9449984 L11.6238829,17.1348439 C13.6036883,16.0201838 15.9474376,16.0197988 17.9274174,17.1336891 C18.3677423,17.3852623 18.8947371,17.3650518 19.3181466,17.0807567 C19.7415561,16.7962691 19.9999962,16.2886954 19.9999962,15.7416632 L19.9999962,2.84752261 C20.001217,2.26122411 19.7047606,1.7236234 19.2323486,1.45549669 Z M5.22373852,15.3135844 C3.98559718,15.3130069 2.76489445,15.6367608 1.66207673,16.2584759 C1.49867692,16.3518294 1.30301573,16.3443226 1.14589386,16.2386503 C0.988771994,16.1331704 0.892859614,15.9447311 0.892859614,15.7416632 L0.892859614,2.84752261 C0.892336445,2.62982612 1.00254846,2.43041532 1.17780649,2.33090242 L2.07066334,1.821019 C4.05046881,0.706551371 6.39421804,0.706166383 8.37419785,1.8200566 L9.55357108,2.49354924 L9.55357108,16.6975261 L8.78261012,16.2575135 C7.68066432,15.6363758 6.46100789,15.3128145 5.22373852,15.3135844 Z M19.1071394,15.7416632 C19.1071394,15.945116 19.0108783,16.1337479 18.8532332,16.2392277 C18.6955882,16.3447076 18.4995782,16.3516369 18.3361784,16.2575135 C16.0995022,14.9986847 13.4519724,14.9990697 11.215645,16.2584759 L10.4464279,16.6977186 L10.4464279,2.49354924 L11.6240573,1.821019 C13.6038627,0.706551371 15.9476119,0.706166383 17.9275918,1.8200566 L18.8221925,2.33090242 C18.9974505,2.43041532 19.1076626,2.62982612 19.1071394,2.84752261 L19.1071394,15.7416632 Z"
                      id="Shape"></path>
            </g>
        </g>
    </g>
</svg>