<?xml version="1.0" encoding="UTF-8"?>
<svg width="20px" height="24px" viewBox="0 0 20 24" version="1.1" xmlns="http://www.w3.org/2000/svg"
     xmlns:xlink="http://www.w3.org/1999/xlink">
    <!-- Generator: Sketch 51.3 (57544) - http://www.bohemiancoding.com/sketch -->
    <title>Shape</title>
    <desc>Created with Sketch.</desc>
    <defs></defs>
    <g id="Page-1" stroke="none" stroke-width="1" fill="none" fill-rule="evenodd">
        <g id="threads-copy-3" transform="translate(-15.000000, -453.000000)" fill="#4A4A4A" fill-rule="nonzero">
            <g id="libary" transform="translate(15.000000, 453.000000)">
                <path d="M19.8636364,22.7227751 L17.3388995,20.2230144 C18.1448804,19.257177 18.5714354,18.0308612 18.5388038,16.7733493 C18.552823,14.4318182 17.0284211,12.3586124 14.7891866,11.6738278 L14.7891866,4.24956938 C14.7891866,3.9745933 14.6891866,3.74961722 14.4142105,3.74961722 L13.0393301,3.74961722 L13.0393301,0.399952153 C13.0393301,0.124976077 12.8893301,0 12.589378,0 L2.515311,0 C1.16545455,0 0.0405741627,0.999904306 0.0405741627,2.34976077 L0.0405741627,16.3483732 C0.0679425837,17.9772249 1.41057416,19.2755024 3.03942584,19.2480861 C3.03971292,19.2480861 3.04,19.2480861 3.04028708,19.2480861 L8.46473684,19.2480861 C9.81382775,21.8765072 13.0382775,22.9135885 15.6666986,21.5644976 C16.0131579,21.3866507 16.3391866,21.1715311 16.6389474,20.9229187 L19.1387081,23.4226794 C19.2370335,23.5231579 19.3731579,23.5776077 19.5136842,23.5726794 C19.642488,23.5802871 19.7688038,23.5351675 19.8636364,23.4477033 C20.0351675,23.2365072 20.0351675,22.9339713 19.8636364,22.7227751 Z M2.48923445,0.999186603 C2.49794258,0.999330144 2.50665072,0.999569378 2.51535885,0.999856459 L12.0394258,0.999856459 L12.0394258,3.74956938 L2.515311,3.74956938 C1.74267943,3.77727273 1.0938756,3.17344498 1.0661244,2.4008134 C1.06578947,2.39210526 1.06559809,2.38339713 1.0654067,2.374689 C1.07875598,1.60177033 1.7162201,0.985885167 2.48923445,0.999186603 Z M7.81483254,16.7733493 C7.83497608,17.2736364 7.91899522,17.7692344 8.06478469,18.2482297 L3.04028708,18.2482297 C1.9637799,18.2761722 1.0684689,17.4261722 1.04052632,16.3497129 C1.04052632,16.3492823 1.04052632,16.3488517 1.04047847,16.3484211 L1.04047847,4.29956938 C1.47727273,4.59110048 1.99019139,4.74755981 2.515311,4.74952153 L13.7892344,4.74952153 L13.7892344,11.4488517 L13.1643062,11.3988517 C10.2098565,11.3988038 7.81478469,13.7938278 7.81478469,16.7482775 C7.81473684,16.7566507 7.81478469,16.7650239 7.81483254,16.7733493 Z M16.3639713,19.8230622 L16.2889952,19.8730622 L16.2889952,19.9480383 C14.5376555,21.6323445 11.7525359,21.5779904 10.0682297,19.8266986 C9.27913876,19.0061722 8.83875598,17.9117225 8.83971292,16.7733493 C8.83856459,14.3573206 10.7962201,12.3978469 13.2122488,12.3967464 C15.6282775,12.3955981 17.5877512,14.3532536 17.5888517,16.7692823 C17.5888517,16.770622 17.5888517,16.7720096 17.5888517,16.7733493 C17.6033014,17.9125359 17.1623445,19.0103349 16.3639713,19.8230622 Z"
                      id="Shape"></path>
            </g>
        </g>
    </g>
</svg>