<?xml version="1.0" encoding="UTF-8"?>
<svg width="20px" height="21px" viewBox="0 0 20 21" version="1.1" xmlns="http://www.w3.org/2000/svg"
     xmlns:xlink="http://www.w3.org/1999/xlink">
    <!-- Generator: Sketch 51.3 (57544) - http://www.bohemiancoding.com/sketch -->
    <title>logout (1)</title>
    <desc>Created with Sketch.</desc>
    <defs></defs>
    <g id="Page-1" stroke="none" stroke-width="1" fill="none" fill-rule="evenodd">
        <g id="threads-copy-3" transform="translate(-15.000000, -647.000000)" fill="#4A4A4A" fill-rule="nonzero">
            <g id="Group-5" transform="translate(15.000000, 647.000000)">
                <g id="logout-(1)">
                    <path d="M9.31385569,19.7966893 L3.87339531,19.7966893 C2.39486498,19.7966893 1.19521912,18.5844652 1.19521912,17.100382 L1.19521912,3.899618 C1.19521912,2.4110781 2.39929172,1.2033107 3.87339531,1.2033107 L9.40239044,1.2033107 C9.73439575,1.2033107 10,0.935908319 10,0.601655348 C10,0.267402377 9.73439575,0 9.40239044,0 L3.87339531,0 C1.7352811,0 0,1.75148557 0,3.899618 L0,17.100382 C0,19.2529711 1.73970784,21 3.87339531,21 L9.31385569,21 C9.645861,21 9.91146525,20.7325976 9.91146525,20.3983447 C9.91146525,20.0640917 9.64143426,19.7966893 9.31385569,19.7966893 Z"
                          id="Path"></path>
                    <path d="M19.8217527,10.0647717 L15.9622492,6.17997736 C15.7238417,5.94000755 15.34149,5.94000755 15.1030824,6.17997736 C14.8646748,6.41994718 14.8646748,6.80480443 15.1030824,7.04477424 L17.927987,9.88819016 L5.60726453,9.88819016 C5.26989534,9.88819016 5,10.1598541 5,10.499434 C5,10.839014 5.26989534,11.1106779 5.60726453,11.1106779 L17.927987,11.1106779 L15.1030824,13.9540938 C14.8646748,14.1940636 14.8646748,14.5789209 15.1030824,14.8188907 C15.220037,14.9366117 15.377476,15 15.5304167,15 C15.6833574,15 15.8407963,14.9411395 15.957751,14.8188907 L19.8172544,10.9340963 C20.0601602,10.6895988 20.0601602,10.3002138 19.8217527,10.0647717 Z"
                          id="Path"></path>
                </g>
            </g>
        </g>
    </g>
</svg>