<?xml version="1.0" encoding="UTF-8"?>
<svg width="18px" height="22px" viewBox="0 0 18 22" version="1.1" xmlns="http://www.w3.org/2000/svg"
     xmlns:xlink="http://www.w3.org/1999/xlink">
    <!-- Generator: Sketch 51.3 (57544) - http://www.bohemiancoding.com/sketch -->
    <title>Group 4</title>
    <desc>Created with Sketch.</desc>
    <defs></defs>
    <g id="Page-1" stroke="none" stroke-width="1" fill="none" fill-rule="evenodd">
        <g id="threads-copy-3" transform="translate(-16.000000, -543.000000)" fill="#4A4A4A" fill-rule="nonzero">
            <g id="Group-4" transform="translate(16.000000, 543.000000)">
                <g id="file">
                    <path d="M6.24889807,8.6325256 L5.06076891,9.45453762 L5.06076891,6.70021887 C5.06076891,6.47916046 4.80973723,6.3 4.49999999,6.3 C4.19026281,6.3 3.93923107,6.47916046 3.93923107,6.70021887 L3.93923107,9.45453762 L2.75110191,8.6325256 C2.52854674,8.47869147 2.17368515,8.48259985 1.9581396,8.64128039 C1.74259404,8.80011725 1.74807034,9.05338076 1.97040642,9.20721488 L4.10965227,10.6870867 C4.32716927,10.8376378 4.67283077,10.8376378 4.89034776,10.6870867 L7.02959356,9.20737121 C7.25192969,9.05353708 7.25740594,8.80011725 7.04186038,8.64143671 C6.82631483,8.48259985 6.47145324,8.47869147 6.24889807,8.6325256 Z"
                          id="Path"></path>
                    <path d="M5.01060597,14.4 L10.289394,14.4 C10.5714241,14.4 10.8,14.1985547 10.8,13.95 C10.8,13.7014453 10.5714241,13.5 10.289394,13.5 L5.01060597,13.5 C4.72877542,13.5 4.5,13.7014453 4.5,13.95 C4.5,14.1985547 4.72877542,14.4 5.01060597,14.4 Z"
                          id="Path"></path>
                    <path d="M4.5,16.65 C4.5,16.8985547 4.69097217,17.1 4.92623254,17.1 L14.8737675,17.1 C15.1091944,17.1 15.3,16.8985547 15.3,16.65 C15.3,16.4014453 15.1091944,16.2 14.8737675,16.2 L4.92623254,16.2 C4.69097217,16.2 4.5,16.4014453 4.5,16.65 Z"
                          id="Path"></path>
                    <path d="M0.432039792,12.2067227 L1.84528045,12.2067227 L1.84528045,19.3257747 C1.84352271,20.5781053 2.84738061,21.5955686 4.08923947,21.6 L15.7681618,21.6 C17.0087903,21.6 17.9998165,20.5768645 17.9998165,19.3257747 L17.9998165,5.45140491 C18.0031563,5.33441441 17.9607942,5.22096904 17.8818707,5.13535322 L13.081071,0.140388655 C12.9984562,0.0517594538 12.8834986,0.00106355042 12.7627404,0 L4.08923947,0 C2.84738061,0.00443145782 1.84352271,1.02189468 1.84528045,2.27422534 L1.84528045,4.03865546 L0.432039792,4.03865546 C0.183492265,4.03865546 0.000333451467,4.24338893 0.000333451467,4.49403229 L0.000333451467,11.7726169 C-0.00300629637,11.8888984 0.0414650939,12.0016347 0.123201017,12.0837053 C0.204936939,12.1659532 0.316730603,12.2104451 0.432039792,12.2067227 Z M13.2299535,1.57813158 L16.5043126,4.99160107 L13.6627145,4.99159664 C13.5458234,4.99212843 13.4336781,4.94480042 13.352118,4.86024817 C13.2705578,4.77587317 13.226438,4.66171876 13.2299535,4.54384189 L13.2299535,1.57813158 Z M2.74525461,2.27422534 C2.74296953,1.52282695 3.3442999,0.911462733 4.08923947,0.907563025 L12.3299793,0.907563025 L12.3299793,4.54384189 C12.3268154,4.9022584 12.4658544,5.24720323 12.7161597,5.50174635 C12.966465,5.75628937 13.307295,5.89933691 13.6627145,5.89915966 L17.0998424,5.89915966 L17.0998424,19.3257747 C17.0998424,20.076464 16.5125741,20.692437 15.7681618,20.692437 L4.08923947,20.692437 C3.3442999,20.6885373 2.74296953,20.077173 2.74525461,19.3257747 L2.74525461,12.2067227 L9.47414338,12.2067227 C9.72269095,12.2067227 9.94504783,12.0232602 9.94504783,11.7726169 L9.94504783,4.49403229 C9.94504783,4.24338893 9.72269095,4.03865546 9.47414338,4.03865546 L2.74525461,4.03865546 L2.74525461,2.27422534 Z M0.900307594,4.94621849 L9.04507368,4.94621849 L9.04507368,11.2991597 L0.900307594,11.2991597 L0.900307594,4.94621849 Z"
                          id="Shape"></path>
                </g>
            </g>
        </g>
    </g>
</svg>