<svg xmlns="http://www.w3.org/2000/svg" viewBox="0 0 415.11 55.84">
    <defs>
        <style>.cls-1{fill:#00007d;}.cls-2{fill:#00b2eb;}.cls-3{fill:#0e46cd;}</style>
    </defs>
    <title>VLE_main</title>
    <g id="Layer_2" data-name="Layer 2">
        <g id="Layer_1-2" data-name="Layer 1">
            <path class="cls-1" d="M168.68,41.3v2h-5.87v3.41h5.62v2h-5.62V52.3h6v2H160.3v-13Z"/>
            <path class="cls-1" d="M182.65,41.3l7.7,9v-9h2.44v13h-2.15l-7.74-9.19v9.19h-2.45v-13Z"/>
            <path class="cls-1" d="M215.7,41.3v2h-4.6v11h-2.51v-11H204v-2Z"/>
            <path class="cls-1" d="M235.28,41.3v2h-5.87v3.41H235v2h-5.62V52.3h6v2H226.9v-13Z"/>
            <path class="cls-1"
                  d="M251.72,41.3a4.3,4.3,0,0,1,3,1,3.57,3.57,0,0,1,.58,4.56,3.84,3.84,0,0,1-1.69,1.29,3.79,3.79,0,0,1,1.1.91,11.15,11.15,0,0,1,1.2,1.94c.79,1.57,1.38,2.65,1.76,3.24h-2.79c-.19-.28-.45-.74-.78-1.36a31.93,31.93,0,0,0-1.57-2.79,3.84,3.84,0,0,0-1-1,1.91,1.91,0,0,0-1.07-.3h-.9v5.47h-2.51v-13Zm-.57,5.52a2.23,2.23,0,0,0,1.54-.49,1.67,1.67,0,0,0,.57-1.34,1.58,1.58,0,0,0-.56-1.33,2.47,2.47,0,0,0-1.59-.44h-1.55v3.6Z"/>
            <path class="cls-1"
                  d="M273.6,41.3a4.16,4.16,0,0,1,2.95,1.05,3.53,3.53,0,0,1,1.14,2.71,3.48,3.48,0,0,1-1.15,2.72,4.37,4.37,0,0,1-3,1H271.1v5.43h-2.51v-13ZM273,46.86a2.38,2.38,0,0,0,1.56-.46A1.66,1.66,0,0,0,275.1,45c0-1.19-.77-1.79-2.3-1.79h-1.7v3.61Z"/>
            <path class="cls-1"
                  d="M293.65,41.3a4.32,4.32,0,0,1,3,1,3.57,3.57,0,0,1,.58,4.56,3.84,3.84,0,0,1-1.69,1.29,3.79,3.79,0,0,1,1.1.91,11.8,11.8,0,0,1,1.2,1.94c.79,1.57,1.38,2.65,1.76,3.24h-2.79c-.19-.28-.45-.74-.78-1.36a28.83,28.83,0,0,0-1.58-2.79,3.67,3.67,0,0,0-1-1,1.94,1.94,0,0,0-1.07-.3h-.91v5.47H289v-13Zm-.56,5.52a2.24,2.24,0,0,0,1.54-.49,1.67,1.67,0,0,0,.56-1.34,1.58,1.58,0,0,0-.55-1.33,2.47,2.47,0,0,0-1.59-.44h-1.56v3.6Z"/>
            <path class="cls-1" d="M313.09,41.3v13h-2.51v-13Z"/>
            <path class="cls-1"
                  d="M329.06,41.13a7.62,7.62,0,0,1,3.65.95V44.3a7.11,7.11,0,0,0-3.57-1.21,2.61,2.61,0,0,0-1.48.36,1.14,1.14,0,0,0-.54,1c0,.49.33.94,1,1.36.18.12.9.47,2.14,1a6.19,6.19,0,0,1,2.3,1.67,3.54,3.54,0,0,1,.7,2.21,3.4,3.4,0,0,1-1.2,2.7,4.64,4.64,0,0,1-3.11,1,7.48,7.48,0,0,1-2.14-.27,9.55,9.55,0,0,1-2-.95V50.74a6.27,6.27,0,0,0,3.91,1.72,2.47,2.47,0,0,0,1.48-.4,1.21,1.21,0,0,0,.57-1.05,1.69,1.69,0,0,0-1-1.47c-.55-.3-1.25-.65-2.11-1.06a6.33,6.33,0,0,1-2.29-1.63,3.31,3.31,0,0,1-.75-2.15,3.14,3.14,0,0,1,1.21-2.6A5,5,0,0,1,329.06,41.13Z"/>
            <path class="cls-1" d="M353.13,41.3v2h-5.87v3.41h5.62v2h-5.62V52.3h6v2h-8.5v-13Z"/>
            <g id="_Group_2" data-name=" Group 2">
                <g id="_Compound_Path_" data-name=" Compound Path ">
                    <path class="cls-2"
                          d="M8.28,21.5l-6-13.14H0l7.57,16.9H9l7.11-16.9h-2.2ZM18.93,25h2.28V8.36H18.93Zm0-21.43h2.28V0H18.93ZM32.09,8.05a7,7,0,0,0-5.45,2.4,8.6,8.6,0,0,0-2.16,6,8.8,8.8,0,0,0,2.33,6.31,7.7,7.7,0,0,0,5.91,2.5h0a10,10,0,0,0,6.34-2.2h.11V20.36l-.44.35A9.1,9.1,0,0,1,33,23a6,6,0,0,1-4.33-1.81,5.77,5.77,0,0,1-1.92-4.33v-.57H39.31v-.25a8,8,0,0,0-2.12-5.78A7,7,0,0,0,32.06,8Zm-5,6.37a5.59,5.59,0,0,1,1.73-3,4.71,4.71,0,0,1,3.22-1.17,4.54,4.54,0,0,1,4.72,4.14ZM48.49,23c-1.07,0-1.63-.25-1.79-.57a7.38,7.38,0,0,1-.35-2.91V10.24h4.54V8.32H46.4V3h-.95L44.2,4.69V8.36H39.81v1.92h4.35v11.3a3.42,3.42,0,0,0,1.16,2.72,4.26,4.26,0,0,0,2.81,1h0a7.6,7.6,0,0,0,3.43-.91h.15V22.09l-.38.18a7,7,0,0,1-2.8.76Zm13.64-15A6.24,6.24,0,0,0,57,10.72V8.36H54.79V25H57V13.52a5.75,5.75,0,0,1,5-3.26c2.79,0,4.1,1.63,4.14,5.27V25h2.23V14.87a7,7,0,0,0-1.71-5,5.92,5.92,0,0,0-4.53-1.83Zm21,15h0a2.09,2.09,0,0,1,0-.5v-10a3.83,3.83,0,0,0-1.52-3.32A6,6,0,0,0,77.79,8a10.13,10.13,0,0,0-5.32,1.75h-.11v2.49l.42-.32a8,8,0,0,1,4.79-2c2.3,0,3.26.95,3.32,3v1.8A14.68,14.68,0,0,0,74,16.54a4.9,4.9,0,0,0-2.58,4.33A4,4,0,0,0,72.8,24a4.61,4.61,0,0,0,3.27,1.25,8.09,8.09,0,0,0,4.82-1.8,3.78,3.78,0,0,0,.32,1.25,1.13,1.13,0,0,0,1,.54h0a6.94,6.94,0,0,0,3.4-1.64h0V21.37l-.39.33a7.48,7.48,0,0,1-2,1.33Zm-2.37-1.67a6.4,6.4,0,0,1-4.24,1.92,3.22,3.22,0,0,1-2.13-.7,2.07,2.07,0,0,1-.81-1.65,3.45,3.45,0,0,1,2-3.11,9.52,9.52,0,0,1,4.81-1.14h.32ZM110.62,9.89A5.38,5.38,0,0,0,106.37,8a6.62,6.62,0,0,0-5.57,3.58A5.48,5.48,0,0,0,95.57,8a5.94,5.94,0,0,0-5,2.68V8.36H88.35V25h2.24V13.52a5.52,5.52,0,0,1,4.6-3.25,3.45,3.45,0,0,1,2.87,1.35,6.2,6.2,0,0,1,1.1,3.85v9.39h2.26v-11a10.27,10.27,0,0,1,2.13-2.73,3.81,3.81,0,0,1,2.49-.82A3.38,3.38,0,0,1,109,11.65a6.6,6.6,0,0,1,1,3.86v9.35h2.23v-10a7.29,7.29,0,0,0-1.58-4.92Z"/>
                </g>
                <g id="_Compound_Path_2" data-name=" Compound Path 2">
                    <path class="cls-2"
                          d="M141.88,7.9l-6.69,16.75h-3.68l-3.74-9.13L124,24.65h-3.74L113.53,7.87h6l3.06,8.47,3.27-8.47h3.88l3.32,8.47L136,7.87Z"/>
                </g>
                <g id="_Compound_Path_3" data-name=" Compound Path 3">
                    <path class="cls-2"
                          d="M160.79,16.29a9.14,9.14,0,0,1-1.07,4.47,7.78,7.78,0,0,1-3.34,3.11,12.78,12.78,0,0,1-10.52,0,7.72,7.72,0,0,1-3.22-3.11,9,9,0,0,1-1.1-4.47,9.64,9.64,0,0,1,.61-3.44A7.56,7.56,0,0,1,144,10.11a8.4,8.4,0,0,1,3-1.93,12.35,12.35,0,0,1,4.14-.63,12.62,12.62,0,0,1,4.18.63,8.14,8.14,0,0,1,3,1.93,7.67,7.67,0,0,1,1.79,2.73A9.73,9.73,0,0,1,160.79,16.29Zm-6.24,0a5,5,0,0,0-.86-3.12,3.36,3.36,0,0,0-4.75-.28l-.29.28a5,5,0,0,0-.86,3.12,5.1,5.1,0,0,0,.88,3.15,3.35,3.35,0,0,0,4.71.29l.29-.29a5,5,0,0,0,.84-3.15Z"/>
                </g>
                <g id="_Compound_Path_4" data-name=" Compound Path 4">
                    <path class="cls-2"
                          d="M177.79,8.85l-2.15,5.92a4.07,4.07,0,0,0-2.74-1.25,3.1,3.1,0,0,0-2.16.85A8.36,8.36,0,0,0,169,17.49v7.2h-5.94V7.9H169V12a8.18,8.18,0,0,1,1.93-2.93,4.48,4.48,0,0,1,3.32-1.42A4.67,4.67,0,0,1,176,8,13.15,13.15,0,0,1,177.79,8.85Z"/>
                </g>
                <g id="_Compound_Path_5" data-name=" Compound Path 5">
                    <path class="cls-2" d="M199.13,24.65h-7.49l-6.45-8v8h-6V1.85h6V15.33l5.89-7.48h7.11l-6.55,7.82Z"/>
                </g>
                <g id="_Compound_Path_6" data-name=" Compound Path 6">
                    <path class="cls-2"
                          d="M213.19,19.74a4.76,4.76,0,0,1-1.67,3.85,7.46,7.46,0,0,1-5,1.46,14.8,14.8,0,0,1-3.32-.35,26.28,26.28,0,0,1-3.16-1V19.47a17.75,17.75,0,0,0,2.6,1.25,6,6,0,0,0,2.4.45c1.49,0,2.23-.41,2.22-1.25a1,1,0,0,0-.32-.73,4.71,4.71,0,0,0-1.12-.71c-.53-.28-1.25-.58-2.12-1a8.78,8.78,0,0,1-2.85-1.84,4.21,4.21,0,0,1-1.13-3,4.31,4.31,0,0,1,.74-2.41,5.6,5.6,0,0,1,2.31-1.92,8.63,8.63,0,0,1,3.75-.73h1.34a12.89,12.89,0,0,1,2.06.38,11.16,11.16,0,0,1,2.37.91v4.12l-.88-.54c-.32-.17-.64-.32-1-.46a9.84,9.84,0,0,0-1.39-.46,6.38,6.38,0,0,0-1.63-.19,1.92,1.92,0,0,0-1.41.39,1.27,1.27,0,0,0-.39.79,1,1,0,0,0,.4.74,6.23,6.23,0,0,0,1.75.87,15,15,0,0,1,3.15,1.53,4.74,4.74,0,0,1,1.75,1.75A4.57,4.57,0,0,1,213.19,19.74Z"/>
                </g>
            </g>
            <path class="cls-3" d="M228,24.37h-5.89V1.75H228Z"/>
            <path class="cls-3"
                  d="M247.71,17.48H235.94A4.1,4.1,0,0,0,237.63,20a5,5,0,0,0,3,1,15.75,15.75,0,0,0,6.56-1.65v3.58a17.48,17.48,0,0,1-3.12,1.24,16.39,16.39,0,0,1-4.68.55,11,11,0,0,1-5.22-1.15A7.56,7.56,0,0,1,231,20.36a9.14,9.14,0,0,1-1.08-4.44A9,9,0,0,1,231,11.63a7.42,7.42,0,0,1,3.22-3,11.23,11.23,0,0,1,5.22-1.1,9.26,9.26,0,0,1,3.91.87,7.24,7.24,0,0,1,3.13,2.82,9.75,9.75,0,0,1,1.25,5.12Zm-5.52-2.91a3.83,3.83,0,0,0-.78-2.49,2.75,2.75,0,0,0-2.27-.95,3.1,3.1,0,0,0-2.37,1,3.55,3.55,0,0,0-.91,2.5Z"/>
            <path class="cls-3"
                  d="M267.89,23.54a19.16,19.16,0,0,1-2.38.81,9.33,9.33,0,0,1-2.63.31,3,3,0,0,1-2-.56,2.88,2.88,0,0,1-.81-1.24A8.6,8.6,0,0,1,258,24.1a7.67,7.67,0,0,1-3,.5A5.94,5.94,0,0,1,252,24a3.55,3.55,0,0,1-1.57-1.59,4.44,4.44,0,0,1-.45-2,4,4,0,0,1,.77-2.49,5.84,5.84,0,0,1,2.08-1.64A26.78,26.78,0,0,1,256.28,15l1.85-.6.93-.31c.22-.09.44-.19.65-.3a3.19,3.19,0,0,0-.49-1.9c-.32-.45-1-.68-2.12-.68a7.66,7.66,0,0,0-3.57.85,12.45,12.45,0,0,0-3,2.18V9.73a11,11,0,0,1,2.37-1.25,14.06,14.06,0,0,1,2.65-.74,15.62,15.62,0,0,1,2.81-.25,8.83,8.83,0,0,1,5.43,1.39,4.59,4.59,0,0,1,1.82,3.85v6.38a4.17,4.17,0,0,0,.17,1.36.63.63,0,0,0,.63.45,3.72,3.72,0,0,0,1.49-.47Zm-8.17-3.18V16.42a16.38,16.38,0,0,0-3.05,1.52,2.11,2.11,0,0,0-1,1.83,1.62,1.62,0,0,0,.48,1.25,1.57,1.57,0,0,0,1.12.44,2.5,2.5,0,0,0,1.25-.34A10.07,10.07,0,0,0,259.72,20.36Z"/>
            <path class="cls-3"
                  d="M284.31,8.66l-2.17,5.89a3.94,3.94,0,0,0-2.71-1.25,3.06,3.06,0,0,0-2.14.84,8.2,8.2,0,0,0-1.74,3.1v7.15h-5.87V7.76h5.87v4a8.32,8.32,0,0,1,2-2.9,4.56,4.56,0,0,1,3.3-1.41,4.64,4.64,0,0,1,1.73.3A13.32,13.32,0,0,1,284.31,8.66Z"/>
            <path class="cls-3"
                  d="M304.7,24.37h-5.84v-9a6,6,0,0,0-.45-2.4,1.92,1.92,0,0,0-2.05-1,2.81,2.81,0,0,0-1.24.28,3.59,3.59,0,0,0-1,.69,8,8,0,0,0-.72.82l-.6.83v9.76h-5.88V7.76h5.88v2.38a8.36,8.36,0,0,1,2.78-2.08,7.87,7.87,0,0,1,3.11-.6q6,0,6,7.15Z"/>
            <path class="cls-3" d="M313.26,24.37h-5.89V7.76h5.89Z"/>
            <path class="cls-3" d="M313.26,5.55h-5.89V2.08h5.89Z"/>
            <path class="cls-3"
                  d="M333.89,24.37H328v-9a6.17,6.17,0,0,0-.45-2.4,1.94,1.94,0,0,0-2-1,2.81,2.81,0,0,0-1.24.28,3.59,3.59,0,0,0-1,.69,8,8,0,0,0-.72.82l-.6.83v9.76h-5.88V7.76H322v2.38a8.36,8.36,0,0,1,2.78-2.08,7.9,7.9,0,0,1,3.11-.6q6,0,6,7.15Z"/>
            <path class="cls-3"
                  d="M353.62,11.3h-2.91a4.17,4.17,0,0,1,1.53,3.28,4.8,4.8,0,0,1-.43,2,5.16,5.16,0,0,1-1.25,1.68,6.74,6.74,0,0,1-2.07,1.25,10.09,10.09,0,0,1-2.82.56c-1.37.06-2,.42-2,1.1a.67.67,0,0,0,.27.57,2,2,0,0,0,.82.27c.37.06,1,.13,1.9.2a18,18,0,0,1,2.82.47A5.51,5.51,0,0,1,351.87,24,3.88,3.88,0,0,1,353,27a4.61,4.61,0,0,1-.83,2.74,5.43,5.43,0,0,1-2.75,1.84,15,15,0,0,1-5,.67A13.56,13.56,0,0,1,337.9,31a3.33,3.33,0,0,1-1.76-4.41,3.2,3.2,0,0,1,1.14-1.36,5.5,5.5,0,0,1,2.5-.89,2.09,2.09,0,0,1-1-.82,2.16,2.16,0,0,1-.42-1.25,3,3,0,0,1,.59-1.71,2.91,2.91,0,0,1,1.94-1.1,7,7,0,0,1-3.22-1.84,4.74,4.74,0,0,1-1.37-3.51,6.24,6.24,0,0,1,.62-2.85,5.39,5.39,0,0,1,1.73-2,7.91,7.91,0,0,1,2.59-1.14,13.36,13.36,0,0,1,3.22-.36h9.12ZM348.3,27.52a1.38,1.38,0,0,0-1.16-1.41,9.26,9.26,0,0,0-2.41-.31,7.19,7.19,0,0,0-2.94.44,1.42,1.42,0,0,0-.91,1.38c0,1.24,1.25,1.86,3.74,1.86A6.14,6.14,0,0,0,347.3,29a1.54,1.54,0,0,0,1-1.52Zm-1.18-13.4a2.56,2.56,0,0,0-.87-2,2.78,2.78,0,0,0-1.92-.76,2.66,2.66,0,0,0-2.13.91,2.93,2.93,0,0,0-.77,1.92,2.59,2.59,0,0,0,1.28,2.22,2.79,2.79,0,0,0,1.46.37,3,3,0,0,0,2.11-.8A2.54,2.54,0,0,0,347.12,14.12Z"/>
            <path class="cls-2"
                  d="M382.66,13.62a21.23,21.23,0,0,1,6.14-5,20.94,20.94,0,0,0-26.12,5.11l.2,42.12a20.77,20.77,0,0,1,19.88-7.27l-.16-34.95Z"/>
            <path class="cls-3"
                  d="M398.75,6a20.82,20.82,0,0,0-9.95,2.54,21,21,0,0,1,6.19,5l.16,35a20.78,20.78,0,0,1,20,7.08l-.2-42.12A21,21,0,0,0,398.75,6Z"/>
            <path class="cls-2"
                  d="M395,13.56a21.23,21.23,0,0,0-6.19-5,21.36,21.36,0,0,0-6.14,5l.17,35A21.05,21.05,0,0,1,389,50.72a21.12,21.12,0,0,1,6.16-2.21Z"/>
            <path class="cls-1"
                  d="M395,13.56a21.23,21.23,0,0,0-6.19-5,21.36,21.36,0,0,0-6.14,5l.17,35A21.05,21.05,0,0,1,389,50.72a21.12,21.12,0,0,1,6.16-2.21Z"/>
        </g>
    </g>
</svg>